<svg xmlns="http://www.w3.org/2000/svg" viewBox="0 0 448 512" fill="currentColor"><path d="M120.12 208.29c-3.2-13.2-5.52-26.82-6.72-40.82H112c-14.14 0-21.42-14.14-14.14-21.42c53.52-53.52 129.2-83 211-83s157.5 29.5 211 83c7.28 7.28 0 21.42-14.14 21.42h-1.4c-1.2 14-3.52 27.62-6.72 40.82c-3.2 13.2-16.42 21.42-29.62 18.22c-13.2-3.2-21.42-16.42-18.22-29.62c2.4-9.8 4-19.6 4.8-29.6H163.22c.8 10 2.4 19.8 4.8 29.6c3.2 13.2-5 26.4-18.22 29.62c-13.2 3.2-26.4-5-29.7-18.22zm-88.12 47.71c0-17.7 14.3-32 32-32h352c17.7 0 32 14.3 32 32v192c0 17.7-14.3 32-32 32H64c-17.7 0-32-14.3-32-32v-192z"/></svg>