<?xml version="1.0" standalone="no"?>
<!DOCTYPE svg PUBLIC "-//W3C//DTD SVG 20010904//EN"
 "http://www.w3.org/TR/2001/REC-SVG-20010904/DTD/svg10.dtd">
<svg version="1.0" xmlns="http://www.w3.org/2000/svg"
 width="1024.000000pt" height="1024.000000pt" viewBox="0 0 1024.000000 1024.000000"
 preserveAspectRatio="xMidYMid meet">

<g transform="translate(0.000000,1024.000000) scale(0.100000,-0.100000)"
fill="#000000" stroke="none">
<path d="M4805 9639 c-786 -50 -1618 -339 -2265 -785 -513 -354 -947 -807
-1272 -1327 -105 -168 -289 -533 -356 -706 -168 -430 -264 -841 -302 -1291
-14 -162 -13 -598 1 -764 60 -726 311 -1438 734 -2081 317 -480 788 -954 1265
-1272 638 -424 1342 -674 2125 -754 159 -16 626 -17 790 0 815 80 1501 331
2176 797 363 251 729 597 1006 952 309 394 569 885 733 1383 258 783 287 1628
85 2444 -190 768 -583 1475 -1138 2045 -371 381 -766 667 -1242 902 -706 347
-1534 509 -2340 457z m1443 -1320 c81 -28 155 -89 191 -157 38 -72 65 -247 41
-262 -24 -15 -238 -24 -254 -10 -8 6 -20 36 -26 66 -21 101 -85 144 -157 107
-82 -43 -107 -153 -101 -441 4 -174 7 -204 27 -254 28 -72 59 -98 118 -98 54
0 86 28 103 91 27 98 18 93 133 86 135 -7 157 -16 157 -61 0 -149 -88 -294
-213 -352 -58 -27 -70 -29 -187 -29 -117 0 -129 2 -182 28 -107 53 -187 165
-229 323 -33 121 -39 451 -11 585 47 229 170 367 352 398 70 12 170 3 238 -20z
m-1448 5 c74 -17 156 -66 195 -118 52 -68 91 -220 63 -244 -17 -13 -171 -35
-224 -30 -41 3 -38 -1 -62 86 -10 37 -70 66 -117 58 -65 -13 -95 -89 -60 -155
14 -27 108 -97 185 -136 67 -34 176 -113 210 -151 18 -21 45 -63 59 -94 23
-48 26 -68 26 -155 0 -91 -3 -106 -31 -165 -41 -88 -83 -133 -155 -169 -82
-41 -157 -55 -262 -48 -151 10 -260 75 -317 190 -33 68 -52 188 -32 201 24 15
253 39 264 28 5 -5 14 -32 19 -59 11 -59 42 -89 102 -98 97 -15 153 48 128
142 -14 51 -49 82 -168 148 -225 124 -301 208 -322 360 -40 283 200 479 499
409z m-2316 -23 c20 -22 58 -136 142 -430 l58 -205 13 60 c8 32 53 176 101
319 l87 260 124 3 c80 2 128 -1 137 -9 21 -18 22 -32 66 -983 14 -322 26 -296
-133 -296 -146 0 -139 -14 -140 260 -1 185 -13 443 -17 386 -1 -11 -36 -130
-78 -265 -52 -169 -82 -252 -96 -263 -26 -23 -139 -25 -161 -4 -12 12 -54 166
-134 481 -9 39 -19 63 -20 55 -2 -8 -12 -149 -22 -313 -16 -252 -22 -302 -37
-318 -15 -16 -31 -19 -119 -19 -150 0 -142 -15 -126 231 37 610 70 1031 81
1044 15 18 42 22 161 24 83 1 98 -2 113 -18z m3016 -1 c13 -20 13 -1210 0
-1244 l-10 -26 -129 0 c-85 0 -132 4 -137 11 -3 6 -6 291 -5 633 0 514 3 623
14 631 8 5 69 10 136 10 97 0 124 -3 131 -15z m1693 0 c12 -10 35 -101 116
-450 162 -696 183 -790 177 -805 -4 -11 -21 -15 -68 -15 -35 0 -92 -3 -128 -6
-87 -8 -96 0 -116 106 -8 47 -20 89 -25 95 -9 9 -266 8 -280 -1 -4 -2 -12 -40
-19 -84 -7 -43 -17 -86 -24 -94 -8 -10 -44 -15 -134 -19 -143 -6 -155 -1 -142
60 5 21 43 196 84 388 158 737 175 809 194 825 15 12 48 14 188 12 93 -2 173
-7 177 -12z m679 2 c10 -12 12 -118 9 -514 l-3 -498 161 0 c121 0 163 -3 166
-12 9 -31 14 -214 5 -228 -8 -13 -56 -16 -297 -21 -200 -4 -292 -2 -300 5 -9
8 -14 174 -19 635 -7 587 -6 625 10 637 28 20 251 17 268 -4z m-4242 -477 c5
-461 6 -481 25 -515 41 -69 161 -76 203 -13 15 25 17 73 22 518 l5 490 133 3
132 3 11 -28 c7 -18 9 -188 7 -503 -4 -460 -4 -477 -26 -540 -35 -102 -77
-152 -168 -197 -78 -38 -78 -38 -203 -38 -169 0 -211 15 -307 110 -113 112
-111 105 -119 688 -4 363 -3 482 6 493 9 12 39 14 143 12 l131 -3 5 -480z
m4349 -1035 c92 -26 134 -47 191 -98 76 -66 130 -188 130 -293 0 -26 -6 -51
-13 -57 -21 -17 -274 -44 -297 -32 -11 6 -21 25 -25 48 -3 20 -13 53 -23 72
-33 68 -145 79 -204 20 -23 -23 -28 -37 -28 -77 0 -86 33 -119 255 -248 124
-72 234 -154 269 -200 135 -176 119 -447 -35 -610 -121 -128 -330 -177 -532
-125 -186 47 -299 171 -328 360 -15 100 -12 102 172 124 165 19 173 17 182
-59 9 -84 61 -126 157 -127 60 0 104 22 120 62 17 42 8 134 -17 168 -20 28
-111 87 -280 182 -134 76 -229 167 -274 262 -33 70 -34 77 -34 193 0 120 0
122 38 197 60 123 170 210 305 242 84 21 186 19 271 -4z m-5329 0 c128 -24
255 -120 303 -228 29 -66 57 -190 57 -257 0 -40 -3 -47 -26 -55 -40 -16 -289
-13 -302 3 -7 7 -17 38 -23 68 -23 112 -80 168 -158 155 -74 -12 -119 -71
-148 -196 -26 -108 -26 -516 -1 -607 35 -127 71 -170 147 -180 83 -11 136 42
160 156 15 73 24 81 85 81 84 0 219 -20 244 -36 22 -14 23 -20 17 -82 -26
-249 -182 -414 -419 -443 -338 -41 -553 159 -606 562 -14 113 -12 410 5 521
27 183 83 306 185 409 66 66 141 110 217 128 53 13 200 13 263 1z m885 -40
c17 -14 17 -35 11 -291 -6 -223 -5 -277 6 -285 7 -5 76 -9 153 -9 l140 0 5
293 c4 246 7 294 20 302 23 15 303 13 323 -3 16 -11 17 -65 15 -770 -3 -738
-4 -759 -22 -773 -23 -16 -291 -20 -316 -4 -13 8 -16 58 -20 312 l-5 303 -144
3 c-109 2 -146 -1 -153 -10 -4 -7 -8 -144 -8 -304 0 -259 -2 -293 -17 -305
-11 -10 -56 -15 -158 -17 -121 -3 -145 -1 -159 13 -15 15 -16 85 -16 780 0
717 1 765 18 774 27 17 305 9 327 -9z m1607 3 c15 -17 138 -524 219 -902 22
-102 63 -284 91 -404 64 -277 75 -257 -138 -257 -120 0 -156 3 -167 14 -8 8
-24 65 -35 127 -12 61 -24 114 -27 117 -6 6 -326 3 -336 -3 -3 -3 -14 -52 -24
-110 -10 -58 -23 -112 -29 -120 -9 -11 -43 -15 -156 -15 -80 -1 -153 -1 -162
0 -9 0 -19 9 -23 19 -3 11 17 124 44 253 28 128 80 373 115 543 126 603 156
729 173 743 12 9 75 12 228 12 189 0 214 -2 227 -17z m856 5 c9 -9 12 -192 12
-763 0 -663 -2 -753 -16 -773 -15 -21 -21 -22 -169 -22 -93 0 -156 4 -160 10
-12 19 -5 1533 7 1547 14 18 308 19 326 1z m936 -16 c128 -48 224 -154 269
-297 31 -100 31 -302 -1 -389 -33 -89 -65 -137 -132 -199 l-61 -57 121 -276
c66 -152 120 -280 120 -284 0 -5 -7 -16 -16 -24 -13 -13 -43 -16 -170 -16
-136 0 -156 2 -172 18 -21 21 -58 107 -143 330 -32 85 -63 160 -70 168 -14 18
-79 19 -79 2 -1 -7 0 -121 0 -254 0 -193 -2 -243 -13 -252 -9 -7 -69 -13 -161
-14 -130 -3 -149 -1 -160 14 -18 25 -26 316 -26 980 0 520 1 558 18 568 11 7
119 9 317 7 281 -3 304 -4 359 -25z m-554 -1779 l30 -28 -30 -220 c-36 -258
-173 -1287 -190 -1426 l-12 -97 -322 -117 c-176 -64 -352 -128 -391 -142 -59
-22 -87 -26 -175 -25 -145 0 -243 15 -890 128 -118 20 -452 94 -547 120 -21 6
-23 12 -23 78 l0 73 108 -29 c265 -69 518 -117 837 -158 88 -12 171 -23 185
-25 14 -3 80 -12 148 -21 149 -20 198 -13 390 52 189 64 613 223 640 240 25
16 29 57 10 99 -11 25 -18 28 -90 40 -21 3 -38 8 -38 10 0 3 11 94 25 202 15
109 53 416 85 683 33 267 62 500 65 518 13 70 127 98 185 45z m-2954 -134 c81
-84 170 -151 309 -234 114 -68 216 -163 257 -241 32 -58 52 -175 42 -244 -15
-112 -59 -220 -115 -285 -42 -48 -64 -59 -89 -45 -27 14 -25 38 5 97 98 189
46 397 -121 479 -54 26 -155 53 -205 54 l-25 0 13 -112 c7 -62 32 -254 54
-427 45 -343 47 -409 10 -483 -111 -230 -473 -353 -603 -205 -92 105 -70 264
53 387 91 91 205 140 339 145 75 3 85 6 83 22 -2 22 -21 165 -33 253 -5 36
-12 81 -14 100 -3 19 -21 150 -41 290 -19 140 -38 273 -41 295 -3 22 -9 68
-15 102 -13 85 2 120 52 122 9 1 48 -31 85 -70z m1604 56 c17 -9 30 -24 30
-34 0 -29 -119 -1203 -122 -1206 -6 -4 -149 12 -154 18 -3 3 13 252 35 554 23
302 41 568 41 592 0 58 35 91 97 91 24 0 57 -7 73 -15z m1100 -142 c0 -10 -9
-92 -20 -183 -11 -91 -20 -171 -20 -179 0 -12 -26 -13 -157 -8 -87 4 -317 7
-512 7 l-354 0 7 83 c3 45 9 123 12 174 l7 91 101 6 c293 18 425 23 669 25
250 1 267 0 267 -16z m-940 -1184 c508 -59 824 -100 866 -110 56 -14 59 -40 7
-62 -47 -21 -326 -121 -538 -194 -248 -85 -268 -84 -1033 38 -145 23 -479 96
-618 135 -27 7 -21 41 10 56 12 5 206 47 431 93 476 98 435 96 875 44z m1088
-899 c50 -250 103 -524 118 -609 l27 -154 -27 -24 c-55 -47 -117 -18 -130 62
-14 77 -78 340 -86 348 -4 5 -113 -40 -241 -99 -129 -59 -286 -129 -349 -156
-63 -28 -118 -52 -122 -55 -5 -2 -8 20 -8 50 l0 54 258 121 c141 66 296 137
345 158 64 27 87 42 87 56 0 10 -32 160 -70 334 -39 174 -69 318 -67 320 9 10
163 59 168 55 4 -3 47 -211 97 -461z m-2250 389 c85 -20 93 -24 88 -43 -6 -24
-100 -533 -182 -986 -31 -173 -58 -316 -59 -318 -1 -1 -24 -5 -51 -8 -39 -5
-54 -2 -71 12 l-22 19 39 290 c21 160 60 443 85 630 26 187 49 359 52 383 3
23 11 42 17 42 6 0 53 -10 104 -21z m848 -155 c34 -3 66 -9 71 -13 6 -3 24
-170 42 -370 29 -341 30 -365 15 -383 -34 -37 -124 -12 -124 35 0 12 -10 93
-22 180 -21 150 -23 158 -42 154 -12 -3 -154 -52 -316 -110 -162 -58 -333
-116 -379 -131 l-84 -25 7 47 c3 25 10 49 14 53 8 9 175 69 502 181 129 44
240 83 246 87 9 5 -8 167 -30 285 -5 25 -4 28 17 23 12 -3 50 -9 83 -13z m538
-208 c-3 -88 -9 -426 -13 -750 l-7 -589 -28 -24 c-31 -26 -58 -26 -102 4 -23
14 -24 21 -24 117 0 55 -4 247 -10 426 -5 179 -12 472 -16 651 l-7 325 107 1
106 1 -6 -162z"/>
<path d="M7000 7907 c0 -13 -16 -108 -35 -212 -20 -104 -33 -195 -30 -202 3
-9 29 -13 85 -13 74 0 80 2 80 20 0 12 -18 111 -40 220 -22 109 -40 201 -40
205 0 3 -4 5 -10 5 -5 0 -10 -10 -10 -23z"/>
<path d="M4892 6233 c-6 -43 -27 -165 -45 -270 -19 -106 -32 -195 -29 -198 10
-10 191 -5 197 5 7 11 -97 540 -106 540 -3 0 -11 -35 -17 -77z"/>
<path d="M6599 6453 c-4 -40 4 -409 8 -415 6 -11 92 -10 135 2 44 13 93 66
107 117 6 21 11 70 11 108 0 137 -65 205 -197 205 -53 0 -63 -3 -64 -17z"/>
</g>
</svg>
