<svg xmlns="http://www.w3.org/2000/svg" viewBox="0 0 24 24" fill="currentColor"><path d="M5.784 4.428h5.823v1.165H5.784V4.428zm12.406 0h.01v.01h-.01V4.428zM14.018 4.428h3.99V5.593h-3.99V4.428zM5.784 6.757h9.276v1.165H5.784V6.757zm0 2.329h3.99v1.165h-3.99V9.086zm0 2.329h3.99v1.165h-3.99v-1.165zm0 2.329h3.99v1.165h-3.99v-1.165zm0 2.329h3.99v1.165h-3.99v-1.165zm4.638-6.987h3.99v9.316h-3.99V9.086zm4.638 0h3.99v9.316h-3.99V9.086zM0 22.072h24V2.001H0v20.07zM1.165 3.166h21.67v17.74H1.165V3.166z"/></svg>