<svg xmlns="http://www.w3.org/2000/svg" viewBox="0 0 1024 1024" fill="currentColor"><g transform="translate(0,1024) scale(0.1,-0.1)" stroke="none"><path d="M4635 8439 c-49 -5 -157 -23 -238 -40 -726 -148 -1319 -595 -1649 -1245 -189 -370 -316 -780 -507 -1629 -186 -823 -277 -1205 -356 -1485 -62 -221 -188 -612 -291 -901 -46 -130 -84 -245 -84 -256 0 -24 101 -86 329 -200 840 -421 1826 -719 2676 -808 211 -22 684 -31 871 -16 306 25 580 77 743 142 96 38 195 104 217 144 16 30 16 39 0 151 -46 319 -144 650 -349 1169 -185 471 -222 591 -215 701 7 119 69 170 225 185 148 14 329 -5 828 -86 662 -108 888 -132 1255 -134 323 -2 467 16 664 84 130 45 226 103 311 189 82 82 127 162 155 272 49 191 6 364 -126 503 -116 123 -264 205 -579 321 -405 149 -639 250 -798 344 -316 186 -523 406 -668 711 -65 139 -97 232 -134 400 -42 186 -89 320 -165 471 -279 554 -782 891 -1490 999 -127 19 -498 28 -625 14z m630 -1314 c123 -33 221 -112 273 -223 24 -50 27 -69 27 -157 0 -88 -3 -107 -27 -157 -120 -256 -468 -319 -678 -122 -83 77 -128 216 -109 334 18 117 112 246 216 295 91 44 201 55 298 30z m1421 -1203 c206 -165 464 -323 789 -482 222 -109 419 -191 730 -305 369 -135 469 -187 511 -267 54 -103 -53 -209 -258 -255 -120 -28 -446 -23 -733 11 -411 49 -1485 214 -1890 292 -277 53 -470 115 -566 182 -63 44 -81 80 -58 120 21 38 72 63 276 138 98 35 223 87 279 114 324 158 557 402 619 651 l17 66 91 -92 c51 -50 138 -128 193 -173z m-2453 -1703 c193 -38 559 -94 765 -118 89 -10 164 -20 167 -22 8 -9 193 -465 249 -616 109 -296 182 -553 206 -728 16 -122 28 -220 26 -222 -1 -1 -54 60 -118 135 -217 257 -753 842 -1238 1352 -216 227 -251 266 -225 256 11 -4 87 -21 168 -37z"/></g></svg>