<svg xmlns="http://www.w3.org/2000/svg" viewBox="0 0 24 24" fill="currentColor">
  <path d="M12.001 2.003c.966 0 1.91.213 2.783.626l5.346 2.52c.94.443 1.53 1.423 1.53 2.473v7.758c0 1.05-.59 2.03-1.53 2.473l-5.346 2.52a3.273 3.273 0 01-2.783.626 3.273 3.273 0 01-2.783-.626l-5.346-2.52c-.94-.443-1.53-1.423-1.53-2.473V7.622c0-1.05.59-2.03 1.53-2.473l5.346-2.52c.874-.413 1.818-.626 2.783-.626Zm0 2.002a1.273 1.273 0 00-1.08.243L5.575 6.768a.273.273 0 00-.128.206v7.052c0 .09.05.172.128.206l5.346 2.52c.34.16.72.243 1.08.243.36 0 .74-.083 1.08-.243l5.346-2.52c.079-.034.128-.116.128-.206V6.974c0-.09-.05-.172-.128-.206l-5.346-2.52a1.273 1.273 0 00-1.08-.243Z"/>
</svg>
