<?xml version="1.0" standalone="no"?>
<svg version="1.0" xmlns="http://www.w3.org/2000/svg"
 width="300px" height="300px" viewBox="150 150 724 724"
 preserveAspectRatio="xMidYMid meet">

<g transform="translate(0.000000,1024.000000) scale(0.100000,-0.100000)" fill="#000000" stroke="none">
    <path d="M7810 7627 c-69 -34 -262 -125 -430 -202 l-305 -140 -841 -840 c-462 -462 -1172 -1175 -1578 -1584 l-738 -744 -80 79 c-44 44 -85 90 -92 104 -8 14 -22 90 -31 170 -19 152 -30 180 -70 180 -30 0 -47 -15 -149 -134 -99 -113 -123 -170 -111 -260 12 -97 34 -127 235 -326 154 -152 190 -192 182 -206 -5 -9 -137 -147 -293 -307 l-284 -291 -60 -2 c-229 -9 -388 -227 -331 -454 56 -222 303 -333 510 -231 122 60 197 176 200 313 l2 66 291 296 c159 163 292 296 295 296 3 0 88 -83 188 -184 200 -202 246 -235 339 -243 107 -10 154 12 283 133 62 58 117 114 122 125 6 12 5 28 -2 44 -13 28 -20 30 -222 44 l-145 11 -89 89 -90 90 49 53 c27 29 734 742 1572 1585 l1524 1532 55 148 c149 395 284 777 284 800 0 17 -36 53 -52 52 -7 0 -69 -28 -138 -62z m30 -120 c0 -2 -48 -133 -106 -293 -58 -159 -120 -327 -137 -374 l-31 -86 -1567 -1574 -1568 -1575 -88 87 -88 88 210 212 c116 117 823 827 1573 1578 993 996 1362 1371 1362 1388 0 23 -32 62 -51 62 -6 0 -18 -4 -27 -9 -15 -8 -806 -799 -2602 -2603 -294 -296 -539 -538 -545 -538 -6 0 -48 38 -94 84 l-85 85 1422 1428 c781 785 1485 1492 1564 1570 l143 143 350 164 c325 153 365 171 365 163z m-4225 -3139 c3 -40 13 -88 21 -108 10 -23 179 -198 501 -519 268 -266 497 -490 509 -498 13 -8 57 -17 101 -19 43 -3 89 -7 102 -10 24 -5 23 -6 -15 -45 -44 -45 -107 -79 -147 -79 -68 0 -99 28 -629 558 -291 290 -535 541 -543 558 -18 38 -20 116 -4 147 16 30 81 97 89 92 4 -3 11 -37 15 -77z m275 -741 c0 -2 11 -57 25 -122 l25 -119 -48 -49 -49 -48 -27 126 -28 127 43 44 c37 37 59 53 59 41z m156 -118 c3 -6 2 -15 -4 -21 -6 -6 -11 -2 -15 11 -5 22 7 29 19 10z m-322 -200 l27 -122 -50 -50 c-56 -56 -48 -66 -82 96 l-22 108 44 45 c24 24 46 44 49 44 4 0 19 -55 34 -121z m-194 -205 l23 -116 -24 -23 -24 -24 -38 44 c-29 35 -40 58 -49 106 l-11 61 44 38 c24 21 47 36 50 34 4 -2 17 -56 29 -120z m-233 -116 c108 -50 167 -208 120 -320 -48 -115 -183 -181 -302 -148 -63 18 -138 87 -162 148 -83 218 133 419 344 320z"/>
    <path d="M3103 2890 c-48 -29 -67 -65 -67 -126 0 -58 17 -91 68 -128 38 -29 124 -29 163 0 90 67 87 202 -5 257 -41 23 -118 22 -159 -3z m98 -90 c23 -13 25 -52 4 -70 -12 -10 -21 -10 -40 -2 -29 13 -33 43 -9 66 18 19 20 19 45 6z"/>
    <path d="M2252 7668 c-7 -7 -12 -23 -12 -37 1 -15 76 -231 168 -482 l167 -457 940 -946 940 -945 40 39 40 40 -316 318 c-174 174 -593 595 -930 934 l-614 617 -94 258 c-52 142 -116 314 -142 383 -25 69 -45 126 -44 128 2 2 45 -18 96 -44 52 -26 213 -103 359 -171 l265 -124 927 -927 928 -927 37 37 36 37 -161 168 c-88 92 -509 515 -934 939 l-773 771 -265 123 c-146 68 -339 159 -429 202 -161 77 -205 90 -229 66z"/>
    <path d="M2856 6998 c-9 -12 -16 -30 -16 -39 0 -18 1856 -1889 1874 -1889 7 0 27 16 46 35 l34 35 -930 932 c-511 513 -933 936 -939 940 -20 15 -54 8 -69 -14z"/>
    <path d="M5746 4611 l-39 -40 266 -268 266 -269 -87 -87 -87 -87 -267 267 -268 267 -40 -39 -40 -39 267 -268 c230 -230 265 -270 253 -281 -8 -7 -50 -46 -93 -87 l-78 -74 -262 262 c-144 144 -267 262 -272 262 -6 0 -23 -16 -39 -36 l-28 -35 137 -142 c76 -78 165 -169 199 -202 34 -33 91 -91 126 -128 l64 -68 -95 -89 c-52 -49 -103 -89 -114 -90 -119 -6 -318 -30 -330 -40 -35 -29 -18 -59 93 -166 134 -130 170 -149 277 -149 118 0 145 18 364 239 l184 186 141 -138 c78 -75 210 -208 295 -294 l153 -157 2 -75 c4 -132 83 -254 204 -313 50 -25 68 -28 152 -28 84 0 102 3 157 29 158 73 245 258 198 422 -44 153 -161 252 -312 262 l-72 5 -300 302 -300 302 189 189 c215 215 242 256 243 368 1 83 -25 136 -113 232 -40 43 -82 91 -93 107 -23 29 -76 38 -94 15 -6 -7 -20 -85 -33 -173 -12 -88 -27 -166 -33 -174 -7 -8 -48 -50 -91 -93 l-80 -79 -266 266 -266 265 -38 -39z m948 -214 c50 -60 60 -130 28 -193 -30 -57 -1057 -1079 -1104 -1099 -46 -19 -79 -19 -123 -1 -33 14 -125 92 -125 106 0 4 46 10 102 14 69 4 110 12 128 23 38 25 969 954 990 988 11 18 24 69 31 123 7 53 17 91 23 89 5 -2 28 -24 50 -50z m-271 -979 l-26 -127 -39 30 c-60 48 -61 53 -33 190 14 67 25 124 25 128 0 3 23 -17 50 -44 l50 -50 -27 -127z m-213 80 c0 -16 -3 -19 -11 -11 -6 6 -8 16 -5 22 11 17 16 13 16 -11z m409 -269 c-12 -63 -25 -117 -28 -121 -4 -5 -28 13 -53 40 l-47 47 27 123 26 123 48 -49 49 -48 -22 -115z m171 -34 l44 -44 -12 -61 c-8 -45 -20 -71 -49 -105 l-37 -45 -24 23 -23 24 22 126 c12 70 25 127 28 127 4 0 27 -20 51 -45z m376 -209 c62 -29 110 -84 129 -150 19 -62 19 -80 -1 -145 -33 -111 -144 -188 -259 -179 -70 6 -106 22 -154 70 -121 118 -87 334 63 404 69 32 153 32 222 0z"/>
    <path d="M7028 2910 c-79 -14 -122 -65 -122 -145 0 -160 215 -214 284 -71 56 118 -34 238 -162 216z m62 -131 c6 -10 10 -20 10 -23 0 -10 -32 -36 -45 -36 -15 0 -45 27 -45 41 0 5 9 18 20 29 22 22 45 18 60 -11z"/>
</g>
</svg>
