<svg xmlns="http://www.w3.org/2000/svg" viewBox="0 0 24 24" fill="currentColor">
    <path d="M20.79,2.29a1,1,0,0,0-1.41,0l-5.1,5.1a1,1,0,0,0,0,1.41l1.41,1.41a1,1,0,0,0,1.41,0l5.1-5.1A1,1,0,0,0,20.79,2.29Z"/>
    <path d="M3.21,12.29a1,1,0,0,0,0,1.41l5.1,5.1a1,1,0,0,0,1.41,0l1.41-1.41a1,1,0,0,0,0-1.41l-5.1-5.1A1,1,0,0,0,3.21,12.29Z"/>
    <path d="M8.92,12.19l-6.5,6.5a1,1,0,0,0,0,1.41,1,1,0,0,0,1.41,0l6.5-6.5Z"/>
    <path d="M13.54,3.27,4.91,11.9a1,1,0,0,0,0,1.41l.71.71a1,1,0,0,0,1.41,0L15.66,5.39a1,1,0,0,0,0-1.41l-.71-.71A1,1,0,0,0,13.54,3.27Z"/>
</svg>
