<svg xmlns="http://www.w3.org/2000/svg" viewBox="0 0 512 512" fill="currentColor">
  <path d="M504 256c0 136.9-111.1 248-248 248S8 392.9 8 256 119.1 8 256 8s248 111.1 248 248zm-141.7-31.3c-9.4-34.5-39.2-59.8-73.1-64.2l14.6-58.1-29.9-7.5-14.3 57.1c-10.1-2.5-20.6-4.8-31-7.1l14.4-57.4-29.9-7.5-14.3 57.1c-7.8-1.7-15.4-3.5-22.9-5.4l14.5-57.8-29.9-7.5L252 124.1c-24.2-5.2-46.3-7.5-62.3-7.5-17.1 0-32.2 2.6-45.1 7.8l-29.9-7.5-21.6 86.2-29.9-7.5 21.6 86.2c-11.9 24.9-15.6 51.9-11.7 79 4.1 28.1 20.2 52.3 46.3 69.1l-21.6 86.2 29.9 7.5 21.4-85.6c10.8 3.1 21.8 5.9 33.1 8.5l-21.6 86.2 29.9 7.5 21.5-85.9c8.1 1.8 16.2 3.5 24.1 5l-21.5 85.9 29.9 7.5 21.6-86.2c74.6 13.1 133.4-33.5 146.5-108.4zm-104.5 40.5c-8.7 34.8-48.3 54.3-83.1 45.6-34.8-8.7-54.3-48.3-45.6-83.1 8.7-34.8 48.3-54.3 83.1-45.6 34.8 8.7 54.3 48.3 45.6 83.1z"/>
</svg>